Coordinates
version=1
nRows=7
nColumns=63
inDegrees=yes

Units are S.I. units (second, meters, Newtons, ...)
If the header above contains a line with 'inDegrees', this indicates whether rotational values are in degrees (yes) or radians (no).

endheader
time	pelvis_tilt	pelvis_list	pelvis_rotation	pelvis_tx	pelvis_ty	pelvis_tz	hip_flexion_r	hip_adduction_r	hip_rotation_r	knee_angle_r	knee_angle_r_beta	ankle_angle_r	subtalar_angle_r	mtp_angle_r	hip_flexion_l	hip_adduction_l	hip_rotation_l	knee_angle_l	knee_angle_l_beta	ankle_angle_l	subtalar_angle_l	mtp_angle_l	L5_S1_Flex_Ext	L5_S1_Lat_Bending	L5_S1_axial_rotation	L4_L5_Flex_Ext	L4_L5_Lat_Bending	L4_L5_axial_rotation	L3_L4_Flex_Ext	L3_L4_Lat_Bending	L3_L4_axial_rotation	L2_L3_Flex_Ext	L2_L3_Lat_Bending	L2_L3_axial_rotation	L1_L2_Flex_Ext	L1_L2_Lat_Bending	L1_L2_axial_rotation	L1_T12_Flex_Ext	L1_T12_Lat_Bending	L1_T12_axial_rotation	Abs_r3	Abs_r2	Abs_r1	Abs_t1	Abs_t2	neck_flexion	neck_bending	neck_rotation	arm_flex_r	arm_add_r	arm_rot_r	elbow_flex_r	pro_sup_r	wrist_flex_r	wrist_dev_r	arm_flex_l	arm_add_l	arm_rot_l	elbow_flex_l	pro_sup_l	wrist_flex_l	wrist_dev_l
      0.00000000	      1.55529171	     -4.22558365	     89.51568678	      0.26839702	      1.02866142	      0.22634161	      3.64329735	      0.10229882	    -10.92322854	     11.79058953	      0.20578461	     27.04720917	     16.43773822	      0.00000000	      1.71533117	     -1.33479819	    -16.50375744	      9.84465436	      0.17182163	     31.07714063	     12.93421220	      0.00000000	      0.45033866	      0.16149026	      0.06814612	      0.83632392	      0.21478205	      0.07240525	      0.73986138	      0.39264742	      0.07240525	      0.51469205	      0.39264742	      0.05962785	      0.41818448	      0.32931094	      0.05536872	      0.25732351	      0.25014841	      0.05110959	      3.21672399	      1.82681013	      0.37900825	      0.00000000	      0.00000000	     28.02620348	      1.66229617	      6.11023107	     12.70106381	    -17.66531476	     75.35833510	     39.42322381	     68.01661880	    -17.66498393	     -2.42420739	      5.35853482	    -12.93881160	     46.72053024	     41.21837317	     73.77660842	     -5.01880303	      1.62284229
      0.01694915	      2.01881192	     -3.87146851	     89.31669605	      0.26843051	      1.02780242	      0.22264833	      2.76087423	      0.59672272	    -10.61213801	     11.59464495	      0.20236473	     26.70859245	     15.77667913	      0.00000000	      1.04179214	     -1.71537442	    -15.47410672	     10.16887121	      0.17748028	     30.12530430	     10.52576539	      0.00000000	      0.45124766	      0.20551790	     -0.01401904	      0.83801204	      0.27333881	     -0.01489523	      0.74135479	      0.49969622	     -0.01489523	      0.51573096	      0.49969622	     -0.01226666	      0.41902858	      0.41909210	     -0.01139047	      0.25784292	      0.31834722	     -0.01051428	      3.22321694	      2.32485957	     -0.07796972	      0.00000000	      0.00000000	     27.99826542	      1.63243296	      5.25989887	     12.22548512	    -17.70815142	     71.13456985	     36.58527569	     57.04027896	     -5.27195065	     -0.34624112	      4.07924086	    -13.16659937	     42.32936140	     39.84414648	     85.07484526	      1.46871000	      5.86419415
      0.03389831	      2.42092299	     -3.51161844	     89.23111820	      0.26819631	      1.02726862	      0.21972360	      1.95892098	      1.00127421	    -10.58705816	     11.42989497	      0.19948930	     26.39589401	     15.40210186	      0.00000000	      0.47306776	     -2.09453072	    -15.21532266	     10.49295629	      0.18313664	     29.71484542	      9.52881764	      0.00000000	      0.43638858	      0.25900905	     -0.08598144	      0.81041723	      0.34448203	     -0.09135528	      0.71694280	      0.62975460	     -0.09135528	      0.49874851	      0.62975460	     -0.07523376	      0.40523044	      0.52817125	     -0.06985992	      0.24935244	      0.40120502	     -0.06448608	      3.11708000	      2.92996216	     -0.47820298	      0.00000000	      0.00000000	     27.95132653	      1.98188113	      6.09217312	     12.23617792	    -17.94125748	     70.03729369	     34.10605360	     55.02376034	     -1.85706936	      1.48412774	      4.69448706	    -14.06325562	     45.25310773	     37.84561926	     87.88828670	      3.65886983	      7.03433776
      0.05084746	      2.71341953	     -3.27506728	     89.08290978	      0.26756316	      1.02695107	      0.21746310	      1.38416183	      1.29394560	    -10.18864052	     11.28624515	      0.19698214	     26.17424296	     14.66851723	      0.00000000	      0.06808564	     -2.08101547	    -12.47823769	     10.53684274	      0.18390260	     28.88993397	      5.19100503	      0.00000000	      0.42981618	      0.30883837	     -0.09421044	      0.79821162	      0.41075503	     -0.10009859	      0.70614500	      0.75090961	     -0.10009859	      0.49123691	      0.75090961	     -0.08243413	      0.39912730	      0.62978320	     -0.07654598	      0.24559696	      0.47839063	     -0.07065783	      3.07013397	      3.49364140	     -0.52397018	      0.00000000	      0.00000000	     27.90354149	      1.88105451	      6.60039076	     11.88127814	    -18.30819840	     68.41483503	     31.49690398	     58.57702467	      0.29126978	      1.71221044	      6.21789052	    -14.74797403	     51.52985671	     34.87181392	     88.17940791	      3.65535671	      5.40462289
      0.06779661	      2.99209573	     -3.06653389	     88.91911851	      0.26695534	      1.02684045	      0.21555922	      0.89025899	      1.54897980	    -10.04021446	     11.14762723	      0.19456280	     25.97754873	     14.41983724	      0.00000000	     -0.28013859	     -2.24432053	    -11.85500743	     10.62982393	      0.18552543	     28.81090122	      3.97567679	      0.00000000	      0.41914221	      0.36196691	     -0.09548576	      0.77838899	      0.48141599	     -0.10145362	      0.68860873	      0.88008635	     -0.10145362	      0.47903763	      0.88008635	     -0.08355004	      0.38921545	      0.73812293	     -0.07758218	      0.23949786	      0.56068675	     -0.07161432	      2.99389088	      4.09464209	     -0.53106317	      0.00000000	      0.00000000	     27.85908722	      1.78718372	      7.47662948	     11.54348200	    -18.82521503	     66.98443339	     29.15920336	     68.23706391	      0.62124477	      0.66353242	      8.04315989	    -15.12478078	     59.71403077	     31.70623022	     88.15278944	      1.83185990	      2.88075824
      0.08474576	      3.20072333	     -2.92131454	     88.77324248	      0.26636024	      1.02679932	      0.21408784	      0.53289344	      1.72603925	     -9.94006707	     11.04116883	      0.19270475	     25.85900433	     14.29861224	      0.00000000	     -0.53199166	     -2.38425378	    -11.73162235	     10.68762922	      0.18653432	     28.98465809	      3.62393498	      0.00000000	      0.41035230	      0.40685528	     -0.11207734	      0.76206525	      0.54111752	     -0.11908218	      0.67416779	      0.98922792	     -0.11908218	      0.46899164	      0.98922792	     -0.09806768	      0.38105314	      0.82965928	     -0.09106284	      0.23447530	      0.63021882	     -0.08405801	      2.93110542	      4.60242826	     -0.62334057	      0.00000000	      0.00000000	     27.82493382	      1.77128589	      8.46095074	     11.60505230	    -19.46042256	     67.56412197	     27.13238842	     79.83582351	     -1.19376084	     -1.13699497	      9.64475443	    -15.17892347	     68.29016223	     28.66701697	     87.76421879	     -0.93601398	      0.41769326
      0.10169492	      3.32331978	     -2.79746256	     88.63095973	      0.26596274	      1.02680229	      0.21303411	      0.24716258	      1.82955977	     -9.82955596	     10.93277045	      0.19081284	     25.82971453	     14.24519262	      0.00000000	     -0.73575280	     -2.45719070	    -11.68890835	     10.74405076	      0.18751906	     29.15355577	      3.48923921	      0.00000000	      0.39958246	      0.43597592	     -0.15372525	      0.74206459	      0.57984797	     -0.16333308	      0.65647402	      1.06003185	     -0.16333308	      0.45668279	      1.06003185	     -0.13450960	      0.37105227	      0.88904210	     -0.12490177	      0.22832142	      0.67532670	     -0.11529394	      2.85417755	      4.93184681	     -0.85497374	      0.00000000	      0.00000000	     27.79552788	      1.84993925	      9.24690975	     12.33557135	    -20.05560238	     72.30695156	     25.18621560	     84.63932132	     -4.53331815	     -2.60636014	     10.52793312	    -15.10210784	     75.50880177	     26.02833228	     87.10684863	     -3.41979083	     -0.86291528
